# xmcd CD database file
#
# Track frame offsets:
#	150
#	12310
#	21827
#	33712
#	44420
#	56252
#	70370
#	87432
#	99197
#	122480
#	144062
#	171942
#	183495
#	229540
#	268402
#	280080
#	304510
#	311000
#
# Disc length: 4422 seconds
#
# Revision: 0
# Processed by: cddbd v1.5PL3 Copyright (c) Steve Scherf et al.
# Submitted via: CDex 1.51
#
DISCID=f1114412
DTITLE=B.B. King - Anthology 1962-1998 Disc 1
DYEAR=2000
DGENRE=Blues
TTITLE0=How Blue Can You Get?
TTITLE1=Sneakin' Around
TTITLE2=Help The Poor
TTITLE3=Stop Leadin' Me On
TTITLE4=Never Trust A Woman
TTITLE5=Ebery Day I Have The Blues (live at The Regal)
TTITLE6=Sweet Little Angel (live at The Regal)
TTITLE7=All Over Again
TTITLE8=Don't Answer The Door
TTITLE9=Gambler's Blues
TTITLE10=Sweet Sixteen, Parts One and Two
TTITLE11=Paying The Cost To Be The Boss
TTITLE12=Lucille
TTITLE13=Why I Sing The Blues
TTITLE14=Please Accept My Love
TTITLE15=The Thrill Is Gone
TTITLE16=Nobody Loves Me But My Mother
TTITLE17=Hummingbird
EXTD=YEAR: 2000
EXTT0=
EXTT1=
EXTT2=
EXTT3=
EXTT4=
EXTT5=
EXTT6=
EXTT7=
EXTT8=
EXTT9=
EXTT10=
EXTT11=
EXTT12=
EXTT13=
EXTT14=
EXTT15=
EXTT16=
EXTT17=
PLAYORDER=
